<svg width="523" height="596" viewBox="0 0 523 596" fill="none" xmlns="http://www.w3.org/2000/svg">
<path d="M290.5 44.5014C290.5 44.5014 311.378 43.9319 319.5 47.4612C341.453 57.0011 333.813 69.5625 341.453 82.7024C365.143 105.003 341.453 108.28 359.878 133.993C378.303 159.706 351.067 159.571 366.459 183.053C381.851 206.536 355.93 217.686 374.355 238.804C381.851 248.163 381.851 261.543 381.851 269.72C381.851 277.897 378.278 323.035 359.878 353.502C339.693 386.924 318.24 404.754 291.833 411.781C276.959 415.735 270.903 365.054 204.01 396.793C160.032 417.658 199.84 374.057 137.464 396.793C104.253 408.891 59.2732 359.068 58.4999 332.503C61.1799 319.122 69.6865 301.244 58.5 285.634C53.472 278.618 54.5517 262.761 71.0026 249.667C87.4534 236.574 53.7701 225.269 91.4016 194.204C108.51 180.08 93.0929 169.673 104.092 151.09C115.091 132.506 132.2 140.683 137.464 112.436C142.728 84.1892 176.288 95.3392 181.552 80.4724C193.396 47.022 214.309 60.1873 224.324 47.4612C242 25 278.5 30.0011 290.5 44.5014Z" fill="black"/>
<path d="M508.358 2H14C7.37258 2 2 7.37258 2 14V508.358C2 514.985 7.37258 520.358 14 520.358H508.358C514.985 520.358 520.358 514.985 520.358 508.358V14C520.358 7.37258 514.985 2 508.358 2Z" stroke="black" stroke-width="4" stroke-miterlimit="10"/>
<path d="M224.02 243.456C161.053 314.3 84.8045 460.392 101.886 488.315C120.919 519.415 211.764 418.534 208.637 413.966C205.982 410.084 235.515 322.693 256.963 258.789C278.386 194.941 239.592 225.934 224.02 243.456Z" fill="#D3766A"/>
<path d="M224.02 243.456C161.053 314.3 84.8045 460.392 101.886 488.315C120.919 519.415 211.764 418.534 208.637 413.966C205.982 410.084 235.515 322.693 256.963 258.789C278.386 194.941 239.592 225.934 224.02 243.456Z" fill="black" stroke="white" stroke-width="2" stroke-miterlimit="10"/>
<path d="M232.495 332.099C226.354 350.741 220.717 368.226 216.438 382.2C206.705 382.634 178.242 381.061 148.665 352.641C157.555 336.874 167.181 321.038 177.103 305.913C184.54 313.746 202.584 329.016 232.495 332.099Z" fill="black" stroke="white" stroke-width="1.25833" stroke-miterlimit="10"/>
<path d="M396.485 519.616H164.426L180.074 413.609L180.125 413.266L179.953 412.966L179.951 412.967C179.953 412.966 179.953 412.966 179.953 412.966L179.952 412.965L179.949 412.96L179.936 412.937L179.885 412.846C179.839 412.764 179.77 412.64 179.68 412.477C179.501 412.151 179.24 411.666 178.911 411.036C178.253 409.777 177.327 407.938 176.262 405.632C174.129 401.018 171.439 394.538 169.206 387.077C164.727 372.11 162.153 353.404 169.347 337.861L169.347 337.86C173.017 329.907 187.552 306.295 204.632 282.142C213.163 270.079 222.312 257.906 231.033 247.513C239.767 237.103 248.025 228.536 254.776 223.634C267.318 214.534 282.213 214.1 295.534 217.994C308.877 221.894 320.485 230.097 326.329 238.016C343.438 261.204 356.211 293.739 367.109 339.596C377.952 385.22 386.919 443.943 396.485 519.616Z" fill="white" stroke="black" stroke-width="2"/>
<path d="M209.398 272.233C204.195 279.374 199.143 286.616 194.179 293.927C195.531 291.083 196.897 288.245 198.23 285.395C198.325 285.188 198.023 285.018 197.922 285.225C196.072 288.799 194.374 292.423 192.719 296.066C186.081 305.894 179.639 315.853 173.422 325.945C170.786 330.23 168.364 334.59 166.583 339.309C164.859 343.876 163.79 348.683 163.224 353.521C162.657 358.372 162.613 363.248 162.991 368.112C163.375 373.126 163.985 378.09 165.105 382.992C166.376 388.522 168.106 394.027 170.346 399.249C171.447 401.81 172.623 404.358 173.888 406.85C175.046 409.121 177.399 413.758 177.367 413.934C176.895 416.501 176.411 418.3 176.084 420.458C175.75 422.654 175.423 424.856 175.09 427.052C174.429 431.45 168.716 474.246 168.074 478.65C166.797 487.389 165.696 496.135 164.608 504.899C163.979 509.926 163.651 514.997 162.947 520.018C162.915 520.219 163.224 520.301 163.261 520.093C163.985 515.721 165.067 511.411 165.86 507.057C166.653 502.697 167.464 498.33 168.282 493.97C169.937 485.162 176.298 437.874 177.676 429.015C178.059 426.568 178.437 424.114 178.821 421.666C179.198 419.232 179.852 415.96 179.758 413.494C179.758 413.494 171.912 397.368 168.861 386.068C167.584 381.324 166.275 376.385 165.74 371.497C165.218 366.684 165.168 361.839 165.564 357.02C165.96 352.2 166.866 347.412 168.345 342.807C169.868 338.05 172.057 333.627 174.505 329.28C179.626 320.176 185.075 311.241 190.592 302.37C196.853 292.316 203.188 282.3 209.662 272.384C209.776 272.214 209.511 272.082 209.398 272.233Z" fill="black"/>
<path d="M101.886 488.314C117.962 508.939 158.908 510.895 261.531 525.511C275.732 527.53 316.967 431.148 301.911 428.21C282.948 424.511 208.562 414.255 203.025 414.186C156.347 413.658 90.983 474.322 101.886 488.314Z" fill="black"/>
<path d="M281.35 424.63C281.35 424.63 324.725 428.896 346.821 438.188C376.411 450.633 396.827 473.56 404.805 483.69C421.459 504.823 447.11 567.438 430.362 577.97C415.205 587.509 392.215 522.182 392.215 522.182C392.215 522.182 426.643 584.916 406.284 593.045C385.924 601.174 363.551 523.818 363.551 523.818C363.551 523.818 397.482 589.069 375.152 594.127C358.284 597.953 334.074 529.034 334.074 529.034C334.074 529.034 362.846 585.325 345.67 590C326.688 595.172 300.351 532.96 300.351 532.96C254.68 537.502 231.073 520.98 215.684 507.233C211.965 503.905 281.35 424.63 281.35 424.63Z" fill="white" stroke="black" stroke-width="2.5" stroke-miterlimit="10"/>
<path d="M381.708 499.72C386.018 506.943 390.435 514.223 394.084 521.811C397.74 529.392 401.131 537.106 404.063 544.995C411.254 564.342 412.733 577.58 412.55 576.775C408.284 557.673 395.626 530.329 391.97 522.742C388.321 515.179 385.056 507.428 381.413 499.853C381.325 499.658 381.608 499.551 381.708 499.72Z" fill="black"/>
<path d="M354.088 512.417C359.191 521.88 364.608 531.084 369.295 540.774C373.957 550.419 377.544 559.976 381.532 569.91C381.841 570.678 381.325 570.59 380.985 569.835C376.6 560.064 371.793 551.369 367.301 541.648C362.821 531.965 358.681 522.031 353.849 512.518C353.78 512.373 354.013 512.272 354.088 512.417Z" fill="black"/>
<path d="M328.431 519.054C336.975 533.116 342.915 548.732 348.369 564.197C348.64 564.965 347.992 564.782 347.671 564.015C341.323 548.883 336.453 536.967 327.94 519.356C327.808 519.073 328.249 518.752 328.431 519.054Z" fill="black"/>
<path d="M310.361 425.983C311.042 426.056 311.636 426.119 312.137 426.172L229.199 523.765C228.996 523.75 228.732 523.73 228.411 523.705C227.566 523.639 226.323 523.538 224.735 523.399C221.56 523.121 217.008 522.689 211.503 522.076C200.492 520.85 185.678 518.9 170.455 516.003C155.223 513.104 139.622 509.264 127.02 504.271C120.718 501.774 115.199 499 110.859 495.933C106.512 492.861 103.413 489.54 101.853 485.97C98.7604 478.893 101.467 470.833 108.189 462.533C114.885 454.265 125.371 446.019 137.189 438.757C148.995 431.502 162.068 425.266 173.882 420.996C185.739 416.71 196.188 414.455 202.8 415.031C216.474 416.222 244.274 419.057 268.665 421.596C280.858 422.864 292.196 424.059 300.486 424.936C304.631 425.374 308.014 425.734 310.361 425.983Z" fill="black" stroke="white" stroke-width="2"/>
<path d="M158.43 427.203C165.061 422.673 183.905 411.908 202.887 414.035C203.101 414.06 203.107 414.362 202.893 414.368C187.327 414.846 165.382 423.611 158.6 427.474C158.417 427.574 158.266 427.316 158.43 427.203Z" fill="black"/>
<path d="M211.764 507.617C244.971 472.446 274.536 430.443 280.211 423.491C280.482 423.164 279.915 422.767 279.664 423.113C274.454 430.223 235.458 474.56 211.166 507.202C210.883 507.579 211.449 507.957 211.764 507.617Z" fill="black"/>
<path d="M344.009 259.625C411.871 345.978 437.471 501.105 399.803 513.198C365.388 524.246 223.838 488.824 181.671 474.504C169.289 470.295 207.536 374.007 220.786 378.493C236.799 383.91 324.341 404.654 326.04 404.692C329.676 404.773 310.222 309.266 301.873 265.992C290.246 205.693 318.527 227.191 344.009 259.625Z" fill="white" stroke="black" stroke-width="1.25833" stroke-miterlimit="10"/>
<path d="M107.631 342.31C100.464 350.439 106.265 360.047 106.265 360.047C106.265 360.047 97.9037 362.28 93.6443 369.421C88.7682 377.6 99.4515 388.831 99.4515 388.831C99.4515 388.831 91.4548 392.845 87.7175 400.835C83.8356 409.134 92.9962 422.001 92.9962 422.001C92.9962 422.001 87.6043 429.827 89.3282 439.057C92.2727 454.837 115.093 463.79 129.545 469.629C143.99 475.467 190.442 478.5 199.237 479.972L237.516 387.566C237.516 387.566 180.18 342.946 162.217 338.498C147.079 334.748 115.671 333.187 107.631 342.31Z" fill="white" stroke="black" stroke-width="2.5" stroke-miterlimit="10"/>
<path d="M107.518 358.826C124.562 358.952 140.643 364.117 156.983 368.358C157.348 368.452 157.19 369.019 156.832 368.924C140.631 364.52 123.756 363.388 107.417 359.631C106.958 359.531 107.058 358.826 107.518 358.826Z" fill="black"/>
<path d="M100.244 387.743C104.101 387.887 107.895 389.303 111.544 390.448C115.476 391.681 119.377 392.983 123.265 394.342C131.048 397.067 138.768 399.967 146.4 403.094C146.739 403.233 146.607 403.786 146.249 403.66C138.491 400.961 130.689 398.375 122.818 396.003C118.88 394.814 114.935 393.663 110.978 392.537C107.297 391.486 103.333 390.687 99.9483 388.837C99.4575 388.56 99.6652 387.724 100.244 387.743Z" fill="black"/>
<path d="M93.3297 422.107C96.6831 422.101 100.269 423.926 103.371 425.083C106.888 426.398 110.418 427.694 113.954 428.972C121.019 431.52 128.091 434.068 135.238 436.371C135.597 436.484 135.446 437.05 135.087 436.937C127.808 434.634 120.503 432.432 113.243 430.06C109.675 428.896 106.121 427.713 102.572 426.512C99.5521 425.492 95.6639 424.555 93.1913 422.454C93.0466 422.34 93.1598 422.107 93.3297 422.107Z" fill="black"/>
<path d="M324.775 400.778C325.87 400.124 305.535 307.945 298.715 259.839C291.895 211.739 313.381 216.357 344.292 257.479C377.405 301.527 436.364 420.767 415.941 509.058C409.329 537.647 204.491 497.594 204.491 497.594L232.092 379.865C232.086 379.871 323.076 401.791 324.775 400.778Z" fill="black" stroke="white" stroke-width="2" stroke-miterlimit="10"/>
<path d="M408.24 392.039C374.831 401.842 338.61 396.865 323.824 394.084C321.685 382.514 316.501 357.442 311.216 330.343C346.317 334.232 370.137 329.223 383.148 324.863C392.655 345.412 401.564 368.339 408.24 392.039Z" fill="black" stroke="white" stroke-width="2" stroke-miterlimit="10"/>
<path d="M231.3 485.49C243.757 444.5 250.628 399.527 252.383 391.775C252.465 391.41 251.867 391.316 251.798 391.694C250.47 399.388 237.044 449.929 230.652 485.402C230.582 485.811 231.18 485.886 231.3 485.49Z" fill="black"/>
<path d="M363.28 414.4C359.329 413.721 254.755 384.269 231.885 380.727C231.526 380.671 231.847 379.469 232.224 379.538C302.49 391.933 360.222 410.72 364.645 412.487C369.899 414.57 370.647 415.665 363.28 414.4Z" fill="black"/>
<path d="M323.762 401.716C323.838 401.515 316.866 366.218 315.633 364.016C314.369 361.733 311.625 356.661 310.505 354.296C308.24 349.527 306.277 344.651 304.195 339.819C304.019 339.422 304.623 339.108 304.799 339.51C307.051 344.185 309.706 348.665 312.38 353.088C313.714 355.258 315.042 357.454 316.376 359.606C316.476 359.751 309.939 325.115 309.027 319.037C308.951 318.591 309.442 318.465 309.581 318.842C311.544 324.964 325.253 394.342 327.128 402.024C327.128 402.031 325.832 402.005 323.762 401.716Z" fill="black"/>
<path d="M246.67 504.912C239.844 503.024 212.475 498.601 205.818 497.645C206.473 495.235 208.417 485.439 208.234 482.677C208.216 482.419 207.826 482.262 207.668 482.494C206.114 484.772 203.447 496.821 202.654 499.664C202.503 500.205 239.523 504.855 246.614 505.232C246.815 505.239 246.872 504.968 246.67 504.912Z" fill="black"/>
<path d="M237.509 231.393C237.509 231.393 240.259 258.479 262.714 262.701C285.169 266.916 327.134 237.421 327.134 237.421C327.134 237.421 310.279 214.739 279.833 214.67C250.546 214.595 237.509 231.393 237.509 231.393Z" fill="black" stroke="white" stroke-width="2" stroke-miterlimit="10"/>
<path d="M301.986 223.825C300.784 227.896 279.569 253.541 260.769 251.578C254.648 250.929 256.699 217.357 256.699 217.357L256.284 214.847L250.501 179.67L292.8 155.818L298.897 152.691C298.897 152.691 299.847 162.418 300.904 174.549C300.954 175.109 301.011 175.675 301.055 176.279C301.13 176.965 301.212 177.606 301.256 178.248C301.439 180.06 301.615 181.904 301.753 183.753C301.867 185.156 301.98 186.522 302.043 188C302.143 189.485 302.213 190.92 302.313 192.404C302.993 207.014 302.471 222.088 301.986 223.825Z" fill="white"/>
<path d="M300.904 175.542C289.371 202.622 266.646 212.625 256.29 215.847L250.508 180.67L292.807 156.818L298.903 153.691C298.897 153.685 299.841 163.412 300.904 175.542Z" fill="white" stroke="black" stroke-width="2.5" stroke-miterlimit="10"/>
<path d="M209.059 108.498C192.6 168.867 227.682 191.04 240.699 194.576C252.521 197.785 293.178 207.21 315.784 148.867C315.784 148.867 313 164.367 304 148.867C301.66 144.836 313.845 129.501 300.922 124.501C288 119.501 298.134 99.2775 289.871 96.0006C274.743 90.0006 281.333 70.0001 274.714 70C269.386 70 264.5 73.9077 252.5 70.9538C240.5 68 228 75 223.5 90.5C219.5 101.5 211.3 100.28 209.059 108.498Z" fill="white" stroke="black" stroke-width="2.5" stroke-miterlimit="10"/>
<path d="M231.589 102.189C233.055 102.365 234.439 102.283 235.911 102.308C237.566 102.34 238.887 102.529 240.341 101.591C241.121 101.088 241.391 99.754 240.976 98.9487C240.001 97.0801 237.981 96.539 235.987 96.4194C233.822 96.2936 232.124 96.7529 230.368 98.0175C228.657 99.2507 229.651 101.956 231.589 102.189Z" fill="black"/>
<path d="M274.611 108.216C273.215 107.732 272.007 107.046 270.679 106.423C269.175 105.719 267.911 105.316 267.017 103.831C266.539 103.038 266.885 101.717 267.609 101.182C269.301 99.9302 271.359 100.333 273.202 101.107C275.203 101.944 276.53 103.101 277.55 105.014C278.531 106.864 276.449 108.852 274.611 108.216Z" fill="black"/>
<path d="M260.814 127.513C260.883 127.362 261.09 127.79 261.04 127.96C259.889 132.062 259.253 136.957 262.657 139.253C262.764 139.323 262.701 139.53 262.563 139.474C258.158 137.706 259.064 131.213 260.814 127.513Z" fill="black"/>
<path d="M265.576 124.109C272.353 125.248 269.572 138.718 263.299 137.661C257.114 136.623 259.895 123.153 265.576 124.109Z" fill="black"/>
<path d="M268.074 125.368C269.094 126.374 269.968 127.954 271.359 128.388C272.969 128.891 274.498 127.733 275.851 126.601C275.989 126.481 276.084 126.626 276.046 126.802C275.549 129.388 274.014 131.836 271.17 131.647C268.571 131.477 267.231 128.816 267.124 126.091C267.099 125.582 267.665 124.959 268.074 125.368Z" fill="black"/>
<path d="M235.962 119.284C235.962 119.12 235.591 119.41 235.559 119.586C234.792 123.776 233.206 128.451 229.142 129.017C229.016 129.036 228.984 129.243 229.129 129.256C233.86 129.602 235.905 123.38 235.962 119.284Z" fill="black"/>
<path d="M233.181 114.13C226.593 112.174 223.164 125.493 229.274 127.305C235.276 129.092 238.705 115.772 233.181 114.13Z" fill="black"/>
<path d="M230.18 114.294C228.946 114.728 227.575 115.741 226.298 115.502C224.813 115.225 224.108 113.507 223.536 111.884C223.479 111.714 223.34 111.802 223.29 111.979C222.567 114.508 222.724 117.377 225.045 118.49C227.159 119.51 229.362 117.748 230.62 115.37C230.846 114.929 230.677 114.118 230.18 114.294Z" fill="black"/>
<path d="M250.149 159.072C248.985 159.896 247.765 161.092 246.217 160.979C244.732 160.865 243.122 159.934 241.863 159.198C241.737 159.123 241.58 159.248 241.649 159.387C242.486 161.174 244.619 162.551 246.626 162.52C248.583 162.489 249.791 160.997 250.527 159.33C250.627 159.097 250.319 158.953 250.149 159.072Z" fill="black"/>
<path d="M236.037 140.222C236.037 140.222 233.822 146.25 233.174 149.182C233.118 149.459 233.797 149.742 234.779 150.018C234.823 150.044 234.848 150.069 234.892 150.05C239.894 151.988 245.5 151.34 249.57 147.804C249.835 147.558 249.526 147.175 249.224 147.3C244.738 149.295 240.309 149.094 235.697 148.162C235.666 147.307 239.843 137.964 239.384 137.832C237.811 137.341 234.414 137.743 232.394 137.882C236.647 125.192 242.907 113.288 246.953 100.585C247.091 100.132 246.456 99.8424 246.229 100.226C238.793 112.243 233.571 126.739 228.839 139.732C228.235 141.349 234.753 140.468 236.037 140.222Z" fill="black"/>
<path d="M235.943 149.094C235.943 149.094 237.711 153.561 241.133 155.914C242.392 156.788 243.845 157.386 245.525 157.386C248.986 157.399 249.854 154.454 249.942 151.761C250.017 149.547 249.533 147.489 249.533 147.489C249.533 147.489 243.638 150.648 235.943 149.094Z" fill="black"/>
<path d="M245.527 156.886H245.525C244.113 156.886 242.865 156.431 241.751 155.724C242.344 154.422 243.464 153.453 244.852 152.85C246.236 152.248 247.862 152.023 249.419 152.195C249.341 153.353 249.097 154.474 248.572 155.326C248.003 156.249 247.083 156.892 245.527 156.886Z" fill="white" stroke="black"/>
<path d="M303.075 149.181C303.075 149.181 319.999 132.408 327.851 138.781C335.697 145.154 320.541 171.177 309.606 173.127C298.677 175.078 296.67 164.998 296.67 164.998L303.075 149.181Z" fill="white" stroke="black" stroke-width="2.5" stroke-miterlimit="10"/>
<path d="M323.322 146.13C323.491 146.142 323.479 146.381 323.328 146.413C315.621 148.017 310.638 153.988 306.737 160.405C309.354 158.14 312.525 157.209 315.621 160.399C315.784 160.569 315.551 160.827 315.356 160.745C312.531 159.581 310.317 159.707 307.901 161.702C306.189 163.111 304.849 165.049 303.49 166.792C303.037 167.37 301.942 166.817 302.32 166.125C302.345 166.074 302.383 166.024 302.408 165.967C303.887 156.781 313.324 145.268 323.322 146.13Z" fill="black"/>
</svg>
