<svg width="1788" height="1035" viewBox="0 0 1788 1035" fill="none" xmlns="http://www.w3.org/2000/svg">
<g clip-path="url(#clip0_2_68)">
<rect width="1788" height="1035" fill="#F7F7F7"/>
</g>
<path d="M1131.5 468.965C1125.71 468.965 1122.16 472.491 1122.16 478.252V519.67C1122.16 532.667 1115.62 539.172 1102.94 539.172C1090.25 539.172 1083.52 532.667 1083.52 519.67V478.252C1083.52 472.491 1079.97 468.965 1074.18 468.965C1068.39 468.965 1064.84 472.491 1064.84 478.252V519.67C1064.84 542.515 1079.41 556.818 1102.74 556.818C1126.08 556.818 1140.82 542.515 1140.82 519.67V478.252C1140.82 472.491 1137.28 468.965 1131.49 468.965H1131.5Z" fill="#0050D7"/>
<path d="M1173.51 436.651C1167.72 436.651 1164.17 440.36 1164.17 446.12V546.589C1164.17 552.349 1167.72 556.059 1173.51 556.059C1179.3 556.059 1182.85 552.349 1182.85 546.589V446.12C1182.85 440.36 1179.3 436.651 1173.51 436.651Z" fill="#0050D7"/>
<path d="M1014.24 447.975C997.434 447.975 988.098 457.079 986.233 475.091L980.624 529.87C980.06 535.251 976.698 538.046 970.921 538.046C965.144 538.046 961.767 535.265 961.217 529.87L955.609 475.091C953.745 457.079 944.407 447.975 927.598 447.975C910.788 447.975 900.335 458.372 900.335 475.091V546.589C900.335 552.349 903.882 556.059 909.672 556.059C915.464 556.059 919.01 552.349 919.01 546.589V475.091C919.01 469.33 922.371 465.804 927.965 465.804C933.558 465.804 936.37 468.965 936.92 475.091L942.528 529.87C944.393 547.334 953.913 556.059 970.907 556.059C987.9 556.059 997.42 547.334 999.286 529.87L1004.89 475.091C1005.46 468.965 1008.44 465.804 1013.85 465.804C1019.26 465.804 1022.8 469.33 1022.8 475.091V546.589C1022.8 552.349 1026.35 556.059 1032.14 556.059C1037.93 556.059 1041.48 552.349 1041.48 546.589V475.091C1041.48 458.372 1031.03 447.975 1014.22 447.975H1014.24Z" fill="#0050D7"/>
<path d="M1300.29 468.965C1294.5 468.965 1290.95 472.674 1290.95 478.434V546.589C1290.95 552.349 1294.5 556.059 1300.29 556.059C1306.08 556.059 1309.62 552.349 1309.62 546.589V478.434C1309.62 472.674 1306.08 468.965 1300.29 468.965Z" fill="#0050D7"/>
<path d="M1300.29 458.934C1306.57 458.934 1311.67 453.945 1311.67 447.792C1311.67 441.639 1306.57 436.651 1300.29 436.651C1294 436.651 1288.9 441.639 1288.9 447.792C1288.9 453.945 1294 458.934 1300.29 458.934Z" fill="#0050D7"/>
<path d="M1263.14 537.485C1259.78 537.485 1256.23 539.156 1251.55 539.156C1240.72 539.156 1235.13 533.213 1235.13 521.51V486.597H1261.46C1267.25 486.597 1270.79 483.436 1270.79 478.238C1270.79 473.039 1267.25 469.878 1261.46 469.878H1235.13V457.43C1235.13 451.67 1231.58 447.961 1225.97 447.961C1220.37 447.961 1216.82 451.67 1216.82 457.43V469.878H1206.18C1200.39 469.878 1196.85 473.039 1196.85 478.238C1196.85 483.436 1200.39 486.597 1206.18 486.597H1216.82V521.51C1216.82 543.245 1230.07 556.789 1251.55 556.789C1260.14 556.789 1271.73 554.372 1271.73 546.392C1271.73 541.559 1268.55 537.485 1263.14 537.485Z" fill="#0050D7"/>
<path d="M479.477 560.582H486.738C488.56 572.567 497.629 578.974 514.466 578.974C535.429 578.974 544.342 567.803 544.342 552.209V533.496C540.542 544.173 530.81 554.513 512.814 554.513C490.199 554.513 476.327 538.089 476.327 513.306V510.187C476.327 485.066 490.199 468.979 512.814 468.979C531.474 468.979 541.206 480.64 544.681 490.489L544.851 470.946H550.953V552.223C550.953 570.446 540.062 584.734 514.297 584.734C493.165 584.734 481.61 575.545 479.463 560.596L479.477 560.582ZM544.681 513.292V510.172C544.681 488.494 533.126 474.866 513.478 474.866C493.829 474.866 483.277 488.508 483.277 510.172V513.292C483.277 534.801 494.013 548.598 513.492 548.598C532.971 548.598 544.695 534.801 544.695 513.292H544.681Z" fill="#0050D7"/>
<path d="M574.077 554.836V470.932H580.518L580.687 489.323C584.318 477.507 594.559 468.965 608.261 468.965C609.08 468.965 610.408 468.965 611.566 469.134V476.032C610.252 475.863 609.094 475.863 608.105 475.863C592.087 475.863 580.701 486.541 580.701 507.56V554.85H574.105L574.077 554.836Z" fill="#0050D7"/>
<path d="M625.423 525.444V470.932H632.02V524.293C632.02 540.871 639.774 550.734 655.793 550.734C672.955 550.734 682.533 537.766 682.533 519.038V470.932H689.129V554.836H682.688L682.518 537.598C678.718 548.429 668.492 556.803 654.621 556.803C635.636 556.803 625.394 545.142 625.394 525.444H625.423Z" fill="#0050D7"/>
<path d="M712.253 582.752V470.932H718.525L718.694 490.475C722.155 480.626 731.732 468.965 750.561 468.965C773.007 468.965 786.878 485.389 786.878 511.001V514.781C786.878 540.393 773.177 556.818 750.393 556.818C732.227 556.818 722.664 545.817 718.864 535.799V582.752H712.253ZM780.099 514.781V511.001C780.099 488.831 769.363 474.88 749.729 474.88C730.093 474.88 718.694 488.831 718.694 511.001V514.781C718.694 537.106 730.249 550.902 749.729 550.902C769.207 550.902 780.099 536.95 780.099 514.781Z" fill="#0050D7"/>
<path d="M800.581 514.781V511.001C800.581 485.22 815.271 468.965 838.72 468.965C862.168 468.965 877.014 485.22 877.014 511.001V514.781C877.014 540.562 862.323 556.818 838.72 556.818C815.116 556.818 800.581 540.562 800.581 514.781ZM870.078 514.781V511.001C870.078 488.677 858.848 474.88 838.705 474.88C818.563 474.88 807.501 488.677 807.501 511.001V514.781C807.501 537.106 818.732 550.902 838.705 550.902C858.679 550.902 870.078 537.106 870.078 514.781Z" fill="#0050D7"/>
<defs>
<clipPath id="clip0_2_68">
<rect width="1788" height="1035" fill="white"/>
</clipPath>
</defs>
</svg>
